<?xml version="1.0" encoding="utf-8"?>
<!-- Generator: Adobe Illustrator 26.0.0, SVG Export Plug-In . SVG Version: 6.00 Build 0)  -->
<svg version="1.1" id="Entire" xmlns="http://www.w3.org/2000/svg" xmlns:xlink="http://www.w3.org/1999/xlink" x="0px" y="0px"
	 viewBox="0 0 500 500" style="enable-background:new 0 0 500 500;" xml:space="preserve">
<style type="text/css">
	.st0{fill:#F4BC95;}
	.st1{fill:#2D2D2D;}
	.st2{fill:#383838;}
	.st3{fill:#6D1B1B;}
	.st4{fill:#382E27;}
	.st5{fill:#E2A176;}
	.st6{fill:#B16668;}
	.st7{fill:#F28F8F;}
	.st8{fill:#263238;}
	.st9{fill:#37474F;}
	.st10{fill:#455A64;}
	.st11{fill:#FFBDA7;}
	.st12{display:none;}
	.st13{display:inline;}
	.st14{fill:#FFC1A6;}
	.st15{opacity:0.2;enable-background:new    ;}
	.st16{opacity:0.3;fill:#FFFFFF;enable-background:new    ;}
	.st17{fill:#FFD6BB;}
	.st18{fill:#B7D7EA;}
	.st19{fill:#C3DEE2;}
</style>
<g id="Person">
	<g id="Lower">
		<path id="Legs" class="st0" d="M346,434.3c-0.1-0.7-0.3-2.4-0.5-8.8c-0.1-2.7-0.1-6.5-0.1-11c-2.5-35.6-3.3-51-3.4-57.3
			c0-0.6,0-2.3-0.2-4.6c-0.2-3.8-0.6-9.8-1.9-18.5c-0.6-4-0.7-5.3-1.1-6.7c-0.5-1.9-1-3.5-1.4-4.8c-0.6-1.6-1-2.8-1.1-3
			c-3.6-9-2.6-38.6-2.6-38.6c0.1-4.7,0.4-11.2,0.6-17.4c0.2-5.2,0.2-5.2,0.3-8.2c0.3-8.9,0.5-13.5,0.5-18.9c0-4,0-7.1-0.2-11
			c-0.7-13-2.8-23.5-4.4-30.1c-0.8-4-1.5-7.4-2-9.7c-23.3-0.2-46.6-0.4-69.9-0.6c-2.9,23.3-5,47.5-6.2,72.4
			c-0.1,3.2-0.3,6.3-0.4,9.5c0,3-0.1,7.2-0.2,12.3c0,0-0.2,17.6,0,33c0.3,26.2,2,75.5,2.2,84.7c0,0.7,0.1,2.8-0.1,5.7
			c-0.2,2.7-0.5,4.9-0.8,6.8c-0.8,4.8-1.6,6.7-2.7,8.1c-1.8,2.6-4.1,3.9-5.6,4.7c-7.5,4.1-15.1,7.5-19.1,9.3c-0.1,1.9,0,4.6,1.7,6.8
			c3.3,4.2,10.2,3.5,14.7,3c4.9-0.5,9.7-2.9,19.4-7.5c4.2-2,7.7-3.9,10.7-7.7c1.3-1.7,2.2-3.2,2.7-4.3c-0.4-2.9-0.8-5.9-1.3-8.8
			c0.9-5.6,2.1-13.9,3.1-24.1c3.4-34.8,0.6-53.1,1.6-75.2c0.7-15.5,3.5-38.1,13.2-65.8c0.7,1,1.4,2,2.1,3
			c6.9,24.6,11.4,45.3,14.4,60.4c4.9,24.5,8.1,46.8,12.7,78.9c1.5,10.8,2.8,19.7,3.6,25.9c1.8,6.4,2.8,11.7,3.3,15.6
			c0.6,4,0.7,6.3,0.8,7.2c0,0,0,0.1,0,0.2c0.1,4.1-0.4,7.3-1,12.9c-0.1,0.9-0.3,2.2-0.4,3.9c0.1,1.7,0.4,5.3,3,8
			c5.2,5.4,16.4,4.4,20-1.4c1.6-2.6,1.4-5.5,1.1-7c-1.2-4.5-2.3-8.4-3-11.4C346.7,438.3,346.3,436.6,346,434.3z"/>
		<path class="st1" d="M219.8,438.7c-0.6,3.1,1.1,5.6,1.3,5.9c3.9,5.8,14.4,4.4,16.2,4.1c1.6-0.2,8.7-1.1,14.9-6.1
			c0,0,9.3-7.2,13.2-8c0.5-0.1,2.2-0.4,4.3-1.3c1.5-0.6,3-1.4,4.5-2.4c0.5-1.6,1-3.8,1.1-6.4c0.1-3.3-0.5-6-1-7.8
			c-1.2,1.8-3,4.3-5.5,6.9c-1.3,1.4-7.3,7.8-17.8,13.2c-6.5,3.4-9.9,3.8-11.9,3.8c-4.2,0.1-6.7-1.2-7.8-1.8
			c-0.9-0.6-4.6-2.8-4.2-5.6c0.2-1.4,1.3-2.4,2-2.8c-0.2,0.1-0.5,0.2-0.9,0.3c0,0-1,0.4-1.8,0.8C225,432.2,220.5,434.5,219.8,438.7z
			"/>
		<path class="st1" d="M327.6,452.2c-0.2,1.7-0.4,3-0.4,3.9c-0.1,0.7-0.1,1.2-0.1,1.7c0,0.9,0,1.6,0,2.2c0.1,1.3,0.8,5.7,4.4,8.8
			c4.9,4.1,13.1,4.3,17.4-0.3c3.2-3.3,3.6-8.6,2.8-11.3c-0.1-0.3-0.4-1.2-1-3.5c-0.9-3.1-1.1-4-1.1-4.1c0,0,0,0,0-0.1l0.1,0.5
			c0.1,0.3,0.7,4.5-1.4,7.7c-2.7,4.1-8.4,4-9.3,4c-0.4,0-7.4-0.2-10.3-5.6C327.9,454.7,327.7,453.2,327.6,452.2z"/>
		<path id="Pants" class="st2" d="M331.6,194c1.2,4.2,2.8,10.4,3.8,18.1c1.1,8.4,1,14.3,0.1,35.9c-0.9,20.1-1.2,25.3-1.3,34.7
			c0,0.2,0,0.4,0,0.6c0,22.2,0.9,27.8,1.6,31.2c0.6,2.8,0.5,1.6,1.6,6.3c2.1,8.7,3,15.6,3.6,20.7c1.4,11.6,2.5,20.8,3.4,34.9
			c0.6,10.4,1.2,23.4,1.1,38.4c-1.8,1-4.9,2.5-9,3c-5.5,0.7-9.8-0.7-11.9-1.6c-3.7-25.1-8.1-51-13.2-77.6
			c-6-31.5-12.6-61.8-19.5-90.6c-1.3,7-3.3,17.6-6.1,30.5c-3.8,18.1-5.1,21.9-6.1,30.5c-1.7,14.6-0.5,22.7,0,35.4
			c0.5,12.7,0.2,31-3.6,53.9c-2.3,0.8-6.2,1.9-11.2,1.6c-4.8-0.3-8.6-1.7-10.8-2.7c-2.1-30.4-3.2-63-3-97.5c0.3-40.8,2.6-79,6-114
			C282.1,188.6,306.9,191.3,331.6,194z"/>
		<path id="Pant_Shadow" class="st1" d="M266.9,219.9c1,0.9,2.1,1.9,3.4,2.8c5,3.5,10.1,4.7,13.6,5.2c1.7,6.6,3.5,13.2,5.2,19.8
			c-0.1,3.6-0.3,7.2-0.5,10.9c-0.2,3.5-0.5,6.9-0.7,10.3c0.8-3.7,1.5-7.5,2.2-11.3c0.6-3.2,1.2-6.4,1.8-9.6
			c-1.9-8.4-3.7-16.7-5.6-25.1c-2.5-0.4-5-0.8-7.6-1.2C274.7,221,270.8,220.5,266.9,219.9z M315.9,204.9c1,4.1,1.8,8.1,2.9,12.2
			s1.9,8.1,3,12.2c0-4.2-0.2-8.4-0.8-12.6c-0.6-4.2-1.4-8.3-2.4-12.4c-1-4.1-2.2-8.2-3.7-12.1c-1.4-4-3.3-7.8-5.5-11.4
			c1.3,4,2.5,8,3.6,12.1S314.8,200.8,315.9,204.9L315.9,204.9z M323.3,197.1c1.4,2.4,2.7,4.9,4.1,7.4l4,7.6c-0.3-2.9-1-5.7-2-8.4
			s-2.2-5.3-3.7-7.8c-1.4-2.5-3-4.9-4.8-7.2s-3.7-4.5-5.9-6.4c1.3,2.6,2.7,5.1,4.1,7.5c1.4,2.5,2.8,4.9,4.1,7.4h0.1L323.3,197.1
			L323.3,197.1z M319.8,323.2c-2.5-12.9-4.3-38.3-6-51.4s-3.4-26.1-5.3-39.2c0.8,13.2,1.8,26.3,3.2,39.4s3,38.7,5.5,51.6
			s5.3,25.8,8.1,38.7c2.8,12.9,5.7,25.8,8.8,38.7c-2.1-13-4.3-26-6.7-39c-2.5-12.9-5.2-25.9-7.7-38.8L319.8,323.2L319.8,323.2z
			 M261.3,267l2.2-34.4c-1.8,11.3-3.2,22.8-4.3,34.2c-1.1,11.4-2.1,22.9-2.1,34.5c0,7.7,0.4,12.2,2.3,34.4c3.8,44,4.1,45.8,4.2,45.8
			c0.3,0,0.1-8.1-2-45.9l-0.9-17.2c-0.3-5.7-0.7-11.5-0.8-17.1c-0.1-4.9,0.1-9.1,0.5-17.1C260.6,279.2,260.9,273.4,261.3,267z"/>
	</g>
	<g id="Upper">
		<path id="Left_Arm_00000008842968846112865650000011890358860557313931_" class="st0" d="M227.8,162.5c-9.5,9-19.1,18.1-28.6,27.1
			c3.4,2.8,6.8,5.6,10.2,8.5c4.1-3.7,8.4-7.4,12.9-11.2c6.5-5.5,12.9-10.6,19.2-15.4"/>
		<path id="Left_Arm" class="st3" d="M241.4,171.6c2.1-1.8,4.9-4.5,7.9-8c4.9-5.7,6.1-7.4,6.8-9.2c0,0,0.1-0.2,0.1-0.4
			c0.8-2.2,2-5.8,2.7-8.3c0.7-2.9,0.9-5,1-6c0.4-4.1,2.9-16.4,10.2-46.2c-5,0.8-8.9,2-12.2,4.4c-5.8,4.3-7.8,10.3-9.2,14.8
			c-4.9,15.2-8.6,29.1-11.1,39.3c-3.3,3.5-6.5,7.1-9.8,10.6C232.4,165.5,236.9,168.5,241.4,171.6z"/>
		<path id="Shirt" class="st3" d="M331.6,194c-5-12.3-6.6-22.8-7.2-29.9c-0.1-1.6-0.7-8.5,0-17.6c0.6-8.2,1.7-13.5,2.8-18.4
			c1.6-7.2,3.1-17.7,2.6-31.6c0,0-5.4-1.3-15.1-4.5c-2.1-0.7-1.6-0.6-3.1-0.7c-1.2-0.1-1.9-0.2-2.3-0.3c-9.3-1.2-21.4-0.3-21.5-0.3
			l0,0c-2.7,0.2-7,0.5-10.4,1.1c-1.8,0.3-4.2,0.8-7.2,1.6c-2.9,2.4-7.9,7-11.3,14.5c-0.7,1.6-3.6,8.1-3.7,17.2
			c0,6.6,1.6,9.2,3.4,17.6c0,0,2.3,10.6,2.5,22.2c0.2,7.5-0.7,19.2-6.7,33.7c8.1,2.6,20.5,5.5,35.7,5
			C308.7,203.2,323.2,197.9,331.6,194z"/>
		<g id="Head">
			<path id="Hair" class="st4" d="M298.2,20.4c-2.1-1.3-5.4-3.1-9.8-4c-1.4-0.3-13.1-2.5-22.6,4.7c-10.5,7.9-11,21.8-11.1,23.4
				c-0.2,9.6,3.3,15,2,27c-0.2,1.8-0.7,3.6-1.6,5.7c-3.2,7.5-7.3,8.7-9.2,16.2c-1,3.7-1.2,9.6,3.4,18c0.6-2,1.7-5.1,4-8.3
				c1.1-1.5,3.4-4.6,7.4-6.8c2.2-1.2,4.9-1.8,10.2-2.8c5.3-1.1,9-1.6,9-1.6c17.6-2.4,30-1.3,34.3,0.1c0.1,0,1.7,0.5,3.8,1.2
				c2.8,0.9,4.9,1.6,5.3,1.7c5.3,1.8,13.1,4.4,17.8,11c2.2,3,3.9,7.1,4.2,7.9c0.7,1.8,1.2,3.3,1.6,4.4c0.4-4.7,0.3-11.9-2.9-19.5
				c-4.3-10-9.6-9.9-13.8-18.3c-6.4-13.1,3.1-19.8-2.5-37.3c-1.2-3.7-4.3-14-13.9-19.4C307.7,20.2,301.6,20.1,298.2,20.4z"/>
			<path id="Head_00000004540175092354338160000011646185290753132432_" class="st0" d="M308.5,86c0-2.7,0.4-16.1,0.4-16.1
				c0.1,1,5,3.7,9.3-1.5c4.3-5.1,4.6-10.7,2-14.2c-2.9-3.9-9.3-3.7-11.9,2.7c-1.6-2.4-3.7-6-5.2-10.7c-1.5-4.9-1.9-9.2-1.8-12.2
				c-12.4-8.2-26.4-7.6-33.9-1.1c-2.3,7.7-3.3,15.7-2.9,23.7c0.5,14.3,4.4,21.2,8.9,23.5c3.1,1.6,5.8,2,11.2,1.5l-0.2,4.5
				c-0.1,1.6,0,2.9-0.7,3.8c-0.4,0.6-1,0.8-1.4,0.9c-3,1.1-11.1,2.5-12.1,2.6c0.4,0.8,1,1.9,1.9,3.1c2.7,3.2,6.8,4.8,20,5.5
				c19.6,0.9,24.2-2,26.3-3.6c1.8-1.4,3-2.9,3.8-3.9c-4.1-1.5-7.4-2.4-10-3.4C308.7,89.6,308.5,88.7,308.5,86z"/>
			<path id="Neck_Shadow" class="st5" d="M284.6,81.8c9.6-1,18.7-4.1,20.9-8.5c0,2.8-1.5,5.5-3.9,7.1c-5.4,3.2-17.2,4.8-17.2,4.8
				L284.6,81.8z"/>
			<path id="Mouth" class="st6" d="M289,64.9l-8.4,2.7c0.6,2.3,3,3.7,5.4,3.1c0.3-0.1,1.8-0.7,2.6-2.4
				C289.4,66.7,289.1,65.3,289,64.9z"/>
			<path id="Tongue" class="st7" d="M288.4,66.8c-2.3-0.1-4.4,1.5-4.9,3.8c0.3,0.1,1.2,0.4,2.2,0.2c1-0.2,1.6-0.8,1.9-1.1
				c1.1-1,1.4-2.3,1.5-2.8C288.9,66.9,288.7,66.8,288.4,66.8z"/>
			<path id="Left_Eyebrow" class="st8" d="M268.4,42.3c1.4-1.2,2.7-1.7,3.5-1.9c1.7-0.5,3.3-0.3,4.7-0.2c1,0.1,1.9,0.3,2.5,0.5
				c-0.3-0.6-0.5-1.2-0.8-1.8c-0.7-0.2-1.9-0.4-3.3-0.4c-0.8,0.1-2.3,0.2-3.9,1.1C269.6,40.6,268.8,41.6,268.4,42.3z"/>
			<path id="Right_Eyebrow" class="st8" d="M296,42.5c-1.3-1.3-2.7-1.8-3.5-2.1c-1.3-0.4-2.5-0.5-3.3-0.5c-0.4,0.5-0.8,1-1.2,1.5
				c0.6,0,1.5,0,2.5,0.2c1.4,0.2,2.9,0.4,4.5,1.3c0.7,0.4,1.8,1.2,2.9,2.7C297.6,44.8,297.1,43.6,296,42.5z"/>
			<path id="Left_Eye" class="st8" d="M274.8,49.5c0.1,1.4-0.9,2.6-2.3,2.7c-1.3,0.2-2.5-0.8-2.7-2.1V50c-0.1-1.4,0.9-2.6,2.3-2.8
				C273.4,47.1,274.6,48.1,274.8,49.5C274.8,49.4,274.8,49.5,274.8,49.5z"/>
			<path id="Right_Eye" class="st8" d="M293,49.9c0.1,1.4-0.9,2.6-2.3,2.7c-1.3,0.2-2.5-0.8-2.7-2.1v-0.1c-0.1-1.4,0.9-2.6,2.3-2.8
				C291.6,47.5,292.8,48.5,293,49.9C293,49.8,293,49.9,293,49.9z"/>
			<path id="Nose" class="st5" d="M274.2,59.6c0.7,1.7,3.5,2.5,6.8,2.2c0.4-3.9,0.8-7.7,1.2-11.6c-0.2-0.6-0.5-1.1-0.9-1.5
				c-1.3,1-3,2.7-4.7,5.1C274.8,56.4,273.6,58.1,274.2,59.6z"/>
		</g>
		<g id="Laptop">
			<path class="st8" d="M292.4,207v1.5c0,1.5-0.8,2.9-2.1,3.7l-40,23c-0.6,0.4-1.4,0.6-2.1,0.6c-0.7,0-1.4-0.2-2.1-0.6l-73.5-42.4
				c-1.3-0.8-2.1-2.2-2.1-3.7v-1l77.7,44.8L292.4,207z"/>
			<path class="st9" d="M170.5,188.1L214,163c0.8-0.4,1.7-0.4,2.5,0l75.5,43.6c0.3,0.2,0.4,0.5,0.2,0.8c0,0.1-0.1,0.2-0.2,0.2
				L248,233L170.5,188.1z"/>
			<polygon class="st8" points="248.6,229.2 272.1,215.7 203.4,176 179.7,189.5 			"/>
			<polygon points="260.1,191.5 259.7,191.8 248.2,198.4 227.7,186.6 227.3,186.4 239.2,179.5 			"/>
			<polygon class="st8" points="259.7,191.8 248.2,198.4 227.7,186.6 239.2,180 			"/>
			<path d="M248.2,232.9v2.8c-0.7,0-1.4-0.2-2.1-0.6l-73.5-42.4c-1.3-0.8-2.1-2.2-2.1-3.7v-1L248.2,232.9z"/>
			<path class="st9" d="M247,233.5c-1.4,0.5-3,0.4-4.3-0.3L169.6,191c-1.3-0.7-2.2-2-2.4-3.5l-8-47.7c0-0.3,0-0.5,0-0.8
				c0-1.3,0.5-2.6,1.5-3.5l76,43.9c1,0.5,1.6,1.5,1.8,2.6L247,233.5z"/>
			<path class="st10" d="M248.2,232.9l-0.5,0.3c-0.2,0.1-0.4,0.2-0.7,0.3l-8.7-51.6c-0.2-1.1-0.9-2-1.8-2.6l-75.9-43.9
				c0.3-0.3,0.6-0.6,1-0.8l76.2,43.9c1,0.5,1.6,1.5,1.8,2.6L248.2,232.9z"/>
			<path class="st8" d="M205.8,189.5c-1.1-4-3.8-7.4-7.4-9.5c-3.5-2-6-1.1-5.4,2.1c1.1,4,3.8,7.4,7.4,9.5
				C203.9,193.6,206.3,192.7,205.8,189.5z"/>
		</g>
		<g id="Right_Arm">
			<path class="st3" d="M323.7,187.5c0,0,9.7-2.8,20.8-7.7l0,0c2.4-1,5-2.2,6.7-3.4c0,0,1.8-1.3,3.5-3.9c3.6-5.4-0.6-18.4-3.2-32.1
				c-1.6-8.4-3.8-24.3-8.8-32.4c-0.8-1.4-1.7-2.5-1.8-2.6c-3.7-4.6-8.2-7-11.4-8.3c-1.2,4.9-2.6,11.9-2.7,20.5
				c-0.2,8.8,0.5,15.4,2.2,22.7c1.9,7.9,3.8,15.7,5.8,23.6c-8.2,4-16.4,7.9-24.7,11.9"/>
			<path class="st0" d="M310.2,175.8c0,0-9.8,4.6-17,4.6c0,0-0.6,0.1-1.4,0l0,0c-0.9,0-2-0.1-3.5-0.2c-9.5-1-13.2-2.1-18.5-1.1
				c-2.8,0.6-9.2,1.8-11.5,2.4c-2.3,0.6-6.6,3.4-10.5,5.1c-3.9,1.7-0.1,4.1,2.5,3.9c2.8-0.3,5.5-0.9,8.1-1.9c2.2-0.5,4.5-0.8,6.8-1
				c-1.2,2.2-2.2,4.6-2.9,7c-0.3,1.3-1,2.9,0,4.1c0.7,0.7,1.6,1.4,2.5,1.8c-0.1,0.5,0,1,0.3,1.4c0.6,0.6,1.4,1.1,2.2,1.1
				c0.5,0,0.9,0,1.4,0c-0.1,0.9,0.3,1.8,1.1,2.3c1.7,1,3.7,1.5,5.7,1.5c0.3,0,2.7-0.7,3.4-0.9c0.9-0.1,1.7-0.4,2.4-0.8
				c0.6-0.6-0.3-2.5-1.4-2.9c-1.2-0.4-2.4-0.6-3.7-0.6c0.3-0.3,0.6-0.8,1-1.4c0.2-0.3,0.4-0.6,0.4-0.7c0.2-0.3,0.3-0.6,0.4-0.7
				c0.3-0.6,0.7-1.2,0.8-1.3c0.7-0.9,3.4,0.3,6.7,0.8c1.9,0.3,3.9,0.6,6.2-0.2c1.5-0.5,3-1.5,3.7-1.8c1.2-0.7,2-1.4,2.2-1.5
				c2.4-1.8,6.6-2.4,10.5-3.2c4-0.8,8-1.6,15.9-3.9"/>
			<path class="st5" d="M263.7,187.7c1.1-1.6,2.7-3.5,4.2-3.7c-0.5,0.4-1,1-1.6,1.7c-0.5,0.7-0.9,1.4-1.1,1.9
				C264.7,187.6,264.2,187.7,263.7,187.7z"/>
			<path class="st5" d="M264.7,200.4c0.2-2.9,0.9-5.1,1.5-6.7c0.8-2.3,1.7-4.5,3.8-6.2c0.7-0.5,1.3-0.9,1.7-1.1
				c-0.1,0.1-0.2,0.1-0.4,0.3c-1.5,1.2-2.4,2.6-3.2,4.4c-0.6,1.2-1,2.4-2,5.3C265.5,198.1,265,199.5,264.7,200.4z"/>
			<path class="st5" d="M268.6,203.1c0.4-3.2,1.2-5.7,1.9-7.4c1.3-3.4,2.7-4.8,3.3-5.4c0.6-0.6,1.1-1,1.5-1.3
				c-0.3,0.3-0.6,0.7-1.1,1.3c-1.5,2-2.2,3.8-2.8,5.4C270.5,198.2,269.6,200.5,268.6,203.1z"/>
			<path class="st5" d="M279.7,202.1c-0.5-0.1-1.1-0.2-1.7-0.1c-0.5,0-1,0.2-1.6,0.2l0.4-0.4c0,0.3-0.1,0.5-0.3,0.7
				c-0.1,0.2-0.3,0.4-0.5,0.5c-0.4,0.3-0.8,0.4-1.3,0.5c0.2-0.1,0.6-0.3,0.9-0.8c0.3-0.5,0.4-1,0.4-1.2h0.3c0.5-0.1,1.1-0.1,1.6,0
				C278.5,201.6,279.1,201.8,279.7,202.1z"/>
		</g>
		<path class="st11" d="M314.1,216.4"/>
	</g>
	<path class="st0" d="M44.6-9.6"/>
</g>
<g id="Speech_Bubbles" class="st12">
	<g id="HTML" class="st13">
		<g id="Bubble_00000078766613107982862460000015339600923572742800_">
			<path id="Vertical_00000026133701232034465850000009043067437363904390_" class="st14" d="M168,334.7l50.4,29.1
				c1,0.6,1.8,2,1.8,4.7v61.2c0,0.8-0.4,1.1-1,1.4l-4.5,2.6c-1.1,0.6-2.5,0.6-3.6,0l-50.4-29.1c-1.1-0.7-1.8-1.8-1.8-3.1v-61.7
				c0.1-1.3,0.8-2.4,1.8-3.1l3.7-2.1C165.6,334.1,166.9,334.1,168,334.7z"/>
			<path id="Vertical_Shadow_00000132052717852492863980000015394473426186644144_" class="st15" d="M168,334.7l50.4,29.1
				c1,0.6,1.8,2,1.8,4.7v61.2c0,0.8-0.4,1.1-1,1.4l-4.5,2.6c-1.1,0.6-2.5,0.6-3.6,0l-50.4-29.1c-1.1-0.7-1.8-1.8-1.8-3.1v-61.7
				c0.1-1.3,0.8-2.4,1.8-3.1l3.7-2.1C165.6,334.1,166.9,334.1,168,334.7z"/>
			<path id="Top_00000052072572166590827500000017881352943174369706_" class="st14" d="M159,339.5c0.1-0.9,0.9-1.2,1.8-0.7
				l50.3,29.1c0.5,0.3,1,0.8,1.3,1.3l7.2-4.2c-0.3-0.5-0.7-1-1.2-1.3L168,334.6c-1.2-0.6-2.5-0.6-3.7,0l-3.7,2.1
				C159.7,337.4,159.1,338.4,159,339.5z"/>
			<path id="Top_Shadow_00000039824137160673591010000011469467016282915981_" class="st16" d="M159,339.5c0.1-0.9,0.9-1.2,1.8-0.7
				l50.3,29.1c0.5,0.3,1,0.8,1.3,1.3l7.2-4.2c-0.3-0.5-0.7-1-1.2-1.3L168,334.6c-1.2-0.6-2.5-0.6-3.7,0l-3.7,2.1
				C159.7,337.4,159.1,338.4,159,339.5z"/>
			<path id="Diagonal_00000046313109687319649560000008569276360350873245_" class="st14" d="M228.6,410.6c1.1-0.7,6.2-3.5,6.5-3.7
				c0.8-0.5,1-1.5,0.5-2.3c-0.1-0.1-0.1-0.2-0.2-0.2l-15.3-17.5l-7.2,4.2l16,17.1c0.6,0.7,0.5,1.8-0.2,2.4
				C228.7,410.5,228.7,410.6,228.6,410.6z"/>
			<path id="Diagonol_Shadow_00000086681868105152749720000009095650040869259440_" class="st16" d="M228.6,410.6
				c1.1-0.7,6.2-3.5,6.5-3.7c0.8-0.5,1-1.5,0.5-2.3c-0.1-0.1-0.1-0.2-0.2-0.2l-15.3-17.5l-7.2,4.2l16,17.1c0.6,0.7,0.5,1.8-0.2,2.4
				C228.7,410.5,228.7,410.6,228.6,410.6z"/>
			<path id="Front_00000013912357296844757110000004564639194781564587_" class="st14" d="M160.7,338.8l50.4,29.1
				c1.1,0.7,1.8,1.8,1.8,3.1v19.9l16,17.1c0.6,0.6,0.6,1.7,0,2.3c-0.3,0.3-0.6,0.4-1,0.5l-15-1.1l0,0v22.9c0,1.1-0.8,1.6-1.8,1
				l-50.4-29.1c-1.1-0.7-1.8-1.8-1.8-3.1v-61.6C159,338.7,159.7,338.2,160.7,338.8z"/>
			
				<image style="overflow:visible;enable-background:new    ;" width="1200" height="1371" id="HTML_00000165192890686737559210000004256307610661520063_" xlink:href="HTML.png"  transform="matrix(2.423149e-02 1.324515e-02 4.980823e-04 2.888403e-02 169.5123 357.6668)">
			</image>
		</g>
	</g>
	<g id="Illustrator" class="st13">
		<g id="Bubble_00000005957487094382471040000001030259771033641617_">
			<path id="Vertical_00000160167103272793668590000013489545767909096855_" class="st17" d="M168,253.9l50.4,29.1
				c1,0.6,1.8,2,1.8,4.7v61.2c0,0.8-0.4,1.1-1,1.4l-4.5,2.6c-1.1,0.6-2.5,0.6-3.6,0l-50.4-29.1c-1.1-0.7-1.8-1.8-1.8-3.1V259
				c0.1-1.3,0.8-2.4,1.8-3.1l3.7-2.1C165.6,253.3,166.9,253.3,168,253.9z"/>
			<path id="Vertical_Shadow_00000025418988114503556520000003549667837612871099_" class="st15" d="M168,253.9l50.4,29.1
				c1,0.6,1.8,2,1.8,4.7v61.2c0,0.8-0.4,1.1-1,1.4l-4.5,2.6c-1.1,0.6-2.5,0.6-3.6,0l-50.4-29.1c-1.1-0.7-1.8-1.8-1.8-3.1V259
				c0.1-1.3,0.8-2.4,1.8-3.1l3.7-2.1C165.6,253.3,166.9,253.3,168,253.9z"/>
			<path id="Top_00000072994703675569658510000005844898850196273080_" class="st17" d="M159,258.7c0.1-0.9,0.9-1.2,1.8-0.7
				l50.3,29.1c0.5,0.3,1,0.8,1.3,1.3l7.2-4.2c-0.3-0.5-0.7-1-1.2-1.3L168,253.8c-1.2-0.6-2.5-0.6-3.7,0l-3.7,2.1
				C159.7,256.6,159.1,257.6,159,258.7z"/>
			<path id="Top_Shadow_00000022558590918705150920000012163387072620107931_" class="st16" d="M159,258.7c0.1-0.9,0.9-1.2,1.8-0.7
				l50.3,29.1c0.5,0.3,1,0.8,1.3,1.3l7.2-4.2c-0.3-0.5-0.7-1-1.2-1.3L168,253.8c-1.2-0.6-2.5-0.6-3.7,0l-3.7,2.1
				C159.7,256.6,159.1,257.6,159,258.7z"/>
			<path id="Diagonal_00000044879836182469158260000013154930332541737866_" class="st17" d="M228.6,329.8c1.1-0.7,6.2-3.5,6.5-3.7
				c0.8-0.5,1-1.5,0.5-2.3c-0.1-0.1-0.1-0.2-0.2-0.2l-15.3-17.5l-7.2,4.2l16,17.1c0.6,0.7,0.5,1.8-0.2,2.4
				C228.7,329.7,228.7,329.8,228.6,329.8z"/>
			<path id="Diagonol_Shadow_00000013883512996254175520000010631058338631612817_" class="st16" d="M228.6,329.8
				c1.1-0.7,6.2-3.5,6.5-3.7c0.8-0.5,1-1.5,0.5-2.3c-0.1-0.1-0.1-0.2-0.2-0.2l-15.3-17.5l-7.2,4.2l16,17.1c0.6,0.7,0.5,1.8-0.2,2.4
				C228.7,329.7,228.7,329.8,228.6,329.8z"/>
			<path id="Front_00000100340279788463245710000007250232076587647642_" class="st17" d="M160.7,258l50.4,29.1
				c1.1,0.7,1.8,1.8,1.8,3.1v19.9l16,17.1c0.6,0.6,0.6,1.7,0,2.3c-0.3,0.3-0.6,0.4-1,0.5l-15-1.1l0,0v22.9c0,1.1-0.8,1.6-1.8,1
				l-50.4-29.1c-1.1-0.7-1.8-1.8-1.8-3.1V259C159,257.9,159.7,257.4,160.7,258z"/>
			
				<image style="overflow:visible;enable-background:new    ;" width="1200" height="1170" id="Illustrator_00000106129325369688340570000015136244588221021371_" xlink:href="Illustrator.png"  transform="matrix(2.864423e-02 1.534348e-02 0 3.323609e-02 167.8747 275.5926)">
			</image>
		</g>
	</g>
	<g id="Photoshop" class="st13">
		<g id="Bubble_00000018928925066871134730000006730133312274472088_">
			<path id="Vertical_00000179633115149262848450000014191122182248466054_" class="st18" d="M168,174.5l50.4,29.1
				c1,0.6,1.8,2,1.8,4.7v61.2c0,0.8-0.4,1.1-1,1.4l-4.5,2.6c-1.1,0.6-2.5,0.6-3.6,0l-50.4-29.1c-1.1-0.7-1.8-1.8-1.8-3.1v-61.7
				c0.1-1.3,0.8-2.4,1.8-3.1l3.7-2.1C165.6,173.9,166.9,173.9,168,174.5z"/>
			<path id="Vertical_Shadow_00000156560632822882180660000013495061123281183135_" class="st15" d="M168,174.5l50.4,29.1
				c1,0.6,1.8,2,1.8,4.7v61.2c0,0.8-0.4,1.1-1,1.4l-4.5,2.6c-1.1,0.6-2.5,0.6-3.6,0l-50.4-29.1c-1.1-0.7-1.8-1.8-1.8-3.1v-61.7
				c0.1-1.3,0.8-2.4,1.8-3.1l3.7-2.1C165.6,173.9,166.9,173.9,168,174.5z"/>
			<path id="Top_00000163061518681600757580000000708333448418769338_" class="st18" d="M159,179.3c0.1-0.9,0.9-1.2,1.8-0.7
				l50.3,29.1c0.5,0.3,1,0.8,1.3,1.3l7.2-4.2c-0.3-0.5-0.7-1-1.2-1.3L168,174.4c-1.2-0.6-2.5-0.6-3.7,0l-3.7,2.1
				C159.7,177.2,159.1,178.2,159,179.3z"/>
			<path id="Top_Shadow_00000048464382884746317960000016415456975183939984_" class="st16" d="M159,179.3c0.1-0.9,0.9-1.2,1.8-0.7
				l50.3,29.1c0.5,0.3,1,0.8,1.3,1.3l7.2-4.2c-0.3-0.5-0.7-1-1.2-1.3L168,174.4c-1.2-0.6-2.5-0.6-3.7,0l-3.7,2.1
				C159.7,177.2,159.1,178.2,159,179.3z"/>
			<path id="Diagonal_00000028313131000007618600000017576261128471864754_" class="st18" d="M228.6,250.4c1.1-0.7,6.2-3.5,6.5-3.7
				c0.8-0.5,1-1.5,0.5-2.3c-0.1-0.1-0.1-0.2-0.2-0.2l-15.3-17.5l-7.2,4.2l16,17.1c0.6,0.7,0.5,1.8-0.2,2.4
				C228.7,250.3,228.7,250.4,228.6,250.4z"/>
			<path id="Diagonol_Shadow_00000059303339905523763920000006482184961526689965_" class="st16" d="M228.6,250.4
				c1.1-0.7,6.2-3.5,6.5-3.7c0.8-0.5,1-1.5,0.5-2.3c-0.1-0.1-0.1-0.2-0.2-0.2l-15.3-17.5l-7.2,4.2l16,17.1c0.6,0.7,0.5,1.8-0.2,2.4
				C228.7,250.3,228.7,250.4,228.6,250.4z"/>
			<path id="Front_00000152963391356763438540000016748963093657505213_" class="st18" d="M160.7,178.6l50.4,29.1
				c1.1,0.7,1.8,1.8,1.8,3.1v19.9l16,17.1c0.6,0.6,0.6,1.7,0,2.3c-0.3,0.3-0.6,0.4-1,0.5l-15-1.1l0,0v22.9c0,1.1-0.8,1.6-1.8,1
				l-50.4-29.1c-1.1-0.7-1.8-1.8-1.8-3.1v-61.6C159,178.5,159.7,178,160.7,178.6z"/>
			
				<image style="overflow:visible;enable-background:new    ;" width="1200" height="1170" id="Photoshop_00000160173872172302071740000016407540187302790320_" xlink:href="Photoshop.png"  transform="matrix(2.697824e-02 1.458683e-02 -4.944983e-04 3.182096e-02 169.1635 197.6384)">
			</image>
		</g>
	</g>
	<g id="Python" class="st13">
		<g id="Bubble_00000055701891160353695890000017732635416627043241_">
			<path id="Vertical_00000014635240040943805250000001005314134934298008_" class="st8" d="M168,94.4l50.4,29.1
				c1,0.6,1.8,2,1.8,4.7v61.2c0,0.8-0.4,1.1-1,1.4l-4.5,2.6c-1.1,0.6-2.5,0.6-3.6,0l-50.4-29.1c-1.1-0.7-1.8-1.8-1.8-3.1V99.5
				c0.1-1.3,0.8-2.4,1.8-3.1l3.7-2.1C165.6,93.8,166.9,93.8,168,94.4z"/>
			<path id="Vertical_Shadow_00000135685873044005123870000004827154187594707345_" class="st15" d="M168,94.4l50.4,29.1
				c1,0.6,1.8,2,1.8,4.7v61.2c0,0.8-0.4,1.1-1,1.4l-4.5,2.6c-1.1,0.6-2.5,0.6-3.6,0l-50.4-29.1c-1.1-0.7-1.8-1.8-1.8-3.1V99.5
				c0.1-1.3,0.8-2.4,1.8-3.1l3.7-2.1C165.6,93.8,166.9,93.8,168,94.4z"/>
			<path id="Top_00000010999141164288757180000005972621270162241471_" class="st8" d="M159,99.2c0.1-0.9,0.9-1.2,1.8-0.7l50.3,29.1
				c0.5,0.3,1,0.8,1.3,1.3l7.2-4.2c-0.3-0.5-0.7-1-1.2-1.3L168,94.3c-1.2-0.6-2.5-0.6-3.7,0l-3.7,2.1
				C159.7,97.1,159.1,98.1,159,99.2z"/>
			<path id="Top_Shadow_00000090264058785190699940000012457430037598826397_" class="st16" d="M159,99.2c0.1-0.9,0.9-1.2,1.8-0.7
				l50.3,29.1c0.5,0.3,1,0.8,1.3,1.3l7.2-4.2c-0.3-0.5-0.7-1-1.2-1.3L168,94.3c-1.2-0.6-2.5-0.6-3.7,0l-3.7,2.1
				C159.7,97.1,159.1,98.1,159,99.2z"/>
			<path id="Diagonal_00000112623226501655935080000002204016075638970778_" class="st8" d="M228.6,170.3c1.1-0.7,6.2-3.5,6.5-3.7
				c0.8-0.5,1-1.5,0.5-2.3c-0.1-0.1-0.1-0.2-0.2-0.2l-15.3-17.5l-7.2,4.2l16,17.1c0.6,0.7,0.5,1.8-0.2,2.4
				C228.7,170.2,228.7,170.3,228.6,170.3z"/>
			<path id="Diagonol_Shadow_00000026156993187129021410000012875220540430473899_" class="st16" d="M228.6,170.3
				c1.1-0.7,6.2-3.5,6.5-3.7c0.8-0.5,1-1.5,0.5-2.3c-0.1-0.1-0.1-0.2-0.2-0.2l-15.3-17.5l-7.2,4.2l16,17.1c0.6,0.7,0.5,1.8-0.2,2.4
				C228.7,170.2,228.7,170.3,228.6,170.3z"/>
			<path id="Front_00000025442223767456478740000013026261159944844426_" class="st8" d="M160.7,98.5l50.4,29.1
				c1.1,0.7,1.8,1.8,1.8,3.1v19.9l16,17.1c0.6,0.6,0.6,1.7,0,2.3c-0.3,0.3-0.6,0.4-1,0.5l-15-1.1l0,0v22.9c0,1.1-0.8,1.6-1.8,1
				l-50.4-29.1c-1.1-0.7-1.8-1.8-1.8-3.1V99.5C159,98.4,159.7,97.9,160.7,98.5z"/>
			
				<image style="overflow:visible;enable-background:new    ;" width="514" height="512" id="Python_00000036233938007355451770000004552793911788593834_" xlink:href="Python.png"  transform="matrix(6.179534e-02 3.051234e-02 3.598412e-03 8.087454e-02 168.5323 116.1749)">
			</image>
		</g>
	</g>
	<g id="Java_00000022527449839332622030000017016510943161282460_" class="st13">
		<g id="Bubble">
			<path id="Vertical" class="st19" d="M168.1,14.3l50.4,29.1c1,0.6,1.8,2,1.8,4.7v61.2c0,0.8-0.4,1.1-1,1.4l-4.5,2.6
				c-1.1,0.6-2.5,0.6-3.6,0l-50.4-29.1c-1.1-0.7-1.8-1.8-1.8-3.1V19.4c0.1-1.3,0.8-2.4,1.8-3.1l3.7-2.1
				C165.7,13.7,167,13.7,168.1,14.3z"/>
			<path id="Vertical_Shadow" class="st15" d="M168.1,14.3l50.4,29.1c1,0.6,1.8,2,1.8,4.7v61.2c0,0.8-0.4,1.1-1,1.4l-4.5,2.6
				c-1.1,0.6-2.5,0.6-3.6,0l-50.4-29.1c-1.1-0.7-1.8-1.8-1.8-3.1V19.4c0.1-1.3,0.8-2.4,1.8-3.1l3.7-2.1
				C165.7,13.7,167,13.7,168.1,14.3z"/>
			<path id="Top" class="st19" d="M159.1,19.1c0.1-0.9,0.9-1.2,1.8-0.7l50.3,29.1c0.5,0.3,1,0.8,1.3,1.3l7.2-4.2
				c-0.3-0.5-0.7-1-1.2-1.3l-50.4-29.1c-1.2-0.6-2.5-0.6-3.7,0l-3.7,2.1C159.8,17,159.2,18,159.1,19.1z"/>
			<path id="Top_Shadow" class="st16" d="M159.1,19.1c0.1-0.9,0.9-1.2,1.8-0.7l50.3,29.1c0.5,0.3,1,0.8,1.3,1.3l7.2-4.2
				c-0.3-0.5-0.7-1-1.2-1.3l-50.4-29.1c-1.2-0.6-2.5-0.6-3.7,0l-3.7,2.1C159.8,17,159.2,18,159.1,19.1z"/>
			<path id="Diagonal" class="st19" d="M228.7,90.2c1.1-0.7,6.2-3.5,6.5-3.7c0.8-0.5,1-1.5,0.5-2.3c-0.1-0.1-0.1-0.2-0.2-0.2
				l-15.3-17.5l-7.2,4.2l16,17.1c0.6,0.7,0.5,1.8-0.2,2.4C228.8,90.1,228.8,90.2,228.7,90.2z"/>
			<path id="Diagonol_Shadow" class="st16" d="M228.7,90.2c1.1-0.7,6.2-3.5,6.5-3.7c0.8-0.5,1-1.5,0.5-2.3c-0.1-0.1-0.1-0.2-0.2-0.2
				l-15.3-17.5l-7.2,4.2l16,17.1c0.6,0.7,0.5,1.8-0.2,2.4C228.8,90.1,228.8,90.2,228.7,90.2z"/>
			<path id="Front" class="st19" d="M160.8,18.4l50.4,29.1c1.1,0.7,1.8,1.8,1.8,3.1v19.9l16,17.1c0.6,0.6,0.6,1.7,0,2.3
				c-0.3,0.3-0.6,0.4-1,0.5l-15-1.1l0,0v22.9c0,1.1-0.8,1.6-1.8,1l-50.4-29.1c-1.1-0.7-1.8-1.8-1.8-3.1V19.4
				C159.1,18.3,159.8,17.8,160.8,18.4z"/>
			
				<image style="overflow:visible;enable-background:new    ;" width="379" height="512" id="Java" xlink:href="Java.png"  transform="matrix(7.326970e-02 3.774888e-02 2.019603e-03 0.101 168.585 29.8024)">
			</image>
		</g>
	</g>
</g>
</svg>
